<?xml version="1.0" encoding="utf-8"?>
<!-- Generator: Adobe Illustrator 26.5.0, SVG Export Plug-In . SVG Version: 6.00 Build 0)  -->
<svg version="1.1" id="Layer_1" xmlns="http://www.w3.org/2000/svg" xmlns:xlink="http://www.w3.org/1999/xlink" x="0px" y="0px"
	 viewBox="0 0 800 800" style="enable-background:new 0 0 800 800;" xml:space="preserve">
<style type="text/css">
	.st0{fill:none;stroke:#FFFFFF;stroke-width:66.6667;stroke-linecap:round;stroke-linejoin:round;stroke-miterlimit:133.3333;}
</style>
<path class="st0" d="M266.7,200l433.3,0 M266.7,400l433.3,0 M266.7,600l433.3,0 M116.7,200h0.3 M116.7,400h0.3 M116.7,600h0.3
	 M133.3,200c0,9.2-7.5,16.7-16.7,16.7S100,209.2,100,200c0-9.2,7.5-16.7,16.7-16.7S133.3,190.8,133.3,200z M133.3,400
	c0,9.2-7.5,16.7-16.7,16.7S100,409.2,100,400s7.5-16.7,16.7-16.7S133.3,390.8,133.3,400z M133.3,600c0,9.2-7.5,16.7-16.7,16.7
	S100,609.2,100,600c0-9.2,7.5-16.7,16.7-16.7S133.3,590.8,133.3,600z"/>
</svg>
