<?xml version="1.0" encoding="utf-8"?>
<!-- Generator: Adobe Illustrator 26.5.0, SVG Export Plug-In . SVG Version: 6.00 Build 0)  -->
<svg version="1.1" id="Layer_1" xmlns="http://www.w3.org/2000/svg" xmlns:xlink="http://www.w3.org/1999/xlink" x="0px" y="0px"
	 viewBox="0 0 800 800" style="enable-background:new 0 0 800 800;" xml:space="preserve">
<style type="text/css">
	.st0{fill:#E52C25;}
</style>
<path class="st0" d="M400,741.5c186.5,0,341.5-154.7,341.5-341.5c0-186.5-155.4-341.5-341.9-341.5c-186.8,0-341.2,155-341.2,341.5
	C58.5,586.8,213.2,741.5,400,741.5z M279.8,548.7c-15.7,0-28.5-12.7-28.5-28.5c0-7.7,3.3-14.4,8.7-19.4l99.8-100.4L260,299.9
	c-5.4-4.7-8.7-11.7-8.7-19.4c0-15.4,12.7-27.8,28.5-27.8c7.7,0,14.4,3,19.4,8.4l100.4,100.1l101.1-100.4c5.7-6,11.7-8.7,19.1-8.7
	c15.7,0,28.5,12.7,28.5,28.1c0,7.7-2.7,14.1-8.4,19.4L439.5,400.3l100.1,99.8c5,5.4,8.4,12.1,8.4,20.1c0,15.7-12.7,28.5-28.5,28.5
	c-8,0-14.7-3.3-19.8-8.4L399.7,439.8l-99.8,100.4C294.9,545.6,287.5,548.7,279.8,548.7z"/>
</svg>
